General
Complete name                    : Edward Maya feat  Vika Jigulina Desert Rain (Official Video).mp4
Format                           : MPEG-4
Format profile                   : Base Media / Version 2
Codec ID                         : mp42
File size                        : 57.7 MiB
Duration                         : 4mn 12s
Overall bit rate                 : 1 916 Kbps
Encoded date                     : UTC 2010-12-27 14:29:01
Tagged date                      : UTC 2010-12-27 14:29:01
gsst                             : 0
gstd                             : 252680
gssd                             : BADC20E01HH1300359827689495
gshh                             :

Video
ID                               : 1
Format                           : AVC
Format/Info                      : Advanced Video Codec
Format profile                   : High@L3.1
Format settings, CABAC           : Yes
Format settings, ReFrames        : 1 frame
Codec ID                         : avc1
Codec ID/Info                    : Advanced Video Coding
Duration                         : 4mn 12s
Bit rate mode                    : Variable
Bit rate                         : 1 785 Kbps
Maximum bit rate                 : 6 704 Kbps
Width                            : 1 280 pixels
Height                           : 720 pixels
Display aspect ratio             : 16:9
Frame rate mode                  : Constant
Frame rate                       : 25.000 fps
Resolution                       : 24 bits
Colorimetry                      : 4:2:0
Scan type                        : Progressive
Bits/(Pixel*Frame)               : 0.077
Stream size                      : 53.8 MiB (93%)
Encoded date                     : UTC 1970-01-01 00:00:00
Tagged date                      : UTC 2010-12-27 14:29:05

Audio
ID                               : 2
Format                           : AAC
Format/Info                      : Advanced Audio Codec
Format version                   : Version 4
Format profile                   : LC
Format settings, SBR             : No
Codec ID                         : 40
Duration                         : 4mn 12s
Bit rate mode                    : Variable
Bit rate                         : 127 Kbps
Maximum bit rate                 : 217 Kbps
Channel(s)                       : 2 channels
Channel positions                : L R
Sampling rate                    : 44.1 KHz
Resolution                       : 16 bits
Stream size                      : 3.81 MiB (7%)
Title                            : (C) 2007 Google Inc. v08.13.2007.
Encoded date                     : UTC 2010-12-27 14:29:03
Tagged date                      : UTC 2010-12-27 14:29:05
